/* XPM */
static char *result[] = {
/* columns rows colors chars-per-pixel */
"64 64 14 1 ",
"  c black",
". c #2D032F",
"X c #5C073C",
"o c #81071A",
"O c #BF1F1F",
"+ c #E2581A",
"@ c #E2771A",
"# c #E29D1A",
"$ c #CDA274",
"% c #4AA2B4",
"& c #70CDD3",
"* c #E9B98C",
"= c #FACBA6",
"- c None",
/* pixels */
"----------------------------------------------------------------",
"----------------------------------------------------------------",
"----------------------------------------------------------------",
"----------------------------------------------------------------",
"----------------------------------------------------------------",
"----------------------------------------------------------------",
"----------------------------------------------------------------",
"----------------------------------------------------------------",
"----------------------------------------------------------------",
"----------------------------------------------------------------",
"----------------------------------------------------------------",
"----------------------------------------------------------------",
"----------------------------------------------------------------",
"----------------------------------------------------------------",
"----------------------------------------------------------------",
"----------------------------------------------------------------",
"----------------------------------------------------------------",
"----------------------------------------------------------------",
"----------------------------------------------------------------",
"----------------------------------------------------------------",
"------------                                    ----------------",
"------------                                    ----------------",
"------------                                    ----------------",
"------------                                    ----------------",
"--------    @@@@    %%%%********====    OOOO####    ------------",
"--------    @@@@    %%%%********====    OOOO####    ------------",
"--------    @@@@    %%%%********====    OOOO####    ------------",
"--------    @@@@    %%%%********====    OOOO####    ------------",
"----    @@@@XXXX    $$$$    ****OOOO    ooooOOOO####    --------",
"----    @@@@XXXX    $$$$    ****OOOO    ooooOOOO####    --------",
"----    @@@@XXXX    $$$$    ****OOOO    ooooOOOO####    --------",
"----    @@@@XXXX    $$$$    ****OOOO    ooooOOOO####    --------",
"----    XXXXoooo    OOOO********====    ooooOOOOOOOO    --------",
"----    XXXXoooo    OOOO********====    ooooOOOOOOOO    --------",
"----    XXXXoooo    OOOO********====    ooooOOOOOOOO    --------",
"----    XXXXoooo    OOOO********====    ooooOOOOOOOO    --------",
"----    XXXXoooo....XXXX........XXXX....ooooooooOOOO    --------",
"----    XXXXoooo....XXXX........XXXX....ooooooooOOOO    --------",
"----    XXXXoooo....XXXX........XXXX....ooooooooOOOO    --------",
"----    XXXXoooo....XXXX........XXXX....ooooooooOOOO    --------",
"----    ....    XXXX++++@@@@@@@@####        ....XXXX    --------",
"----    ....    XXXX++++@@@@@@@@####        ....XXXX    --------",
"----    ....    XXXX++++@@@@@@@@####        ....XXXX    --------",
"----    ....    XXXX++++@@@@@@@@####        ....XXXX    --------",
"----    XXXX    ........++++####OOOO        oooo%%%%    --------",
"----    XXXX    ........++++####OOOO        oooo%%%%    --------",
"----    XXXX    ........++++####OOOO        oooo%%%%    --------",
"----    XXXX    ........++++####OOOO        oooo%%%%    --------",
"--------    ----    XXXX....    XXXX        %%%%&&&&    --------",
"--------    ----    XXXX....    XXXX        %%%%&&&&    --------",
"--------    ----    XXXX....    XXXX        %%%%&&&&    --------",
"--------    ----    XXXX....    XXXX        %%%%&&&&    --------",
"----------------    ooooOOOO        --------        ------------",
"----------------    ooooOOOO        --------        ------------",
"----------------    ooooOOOO        --------        ------------",
"----------------    ooooOOOO        --------        ------------",
"--------------------        XXXX    ----------------------------",
"--------------------        XXXX    ----------------------------",
"--------------------        XXXX    ----------------------------",
"--------------------        XXXX    ----------------------------",
"--------------------    oooo    --------------------------------",
"--------------------    oooo    --------------------------------",
"--------------------    oooo    --------------------------------",
"--------------------    oooo    --------------------------------"
};
