/* XPM */
static char *result[] = {
/* columns rows colors chars-per-pixel */
"64 64 14 1 ",
"  c black",
". c #2D032F",
"X c #5C073C",
"o c #81071A",
"O c #BF1F1F",
"+ c #E2581A",
"@ c #E2771A",
"# c #E29D1A",
"$ c #CDA274",
"% c #4AA2B4",
"& c #70CDD3",
"* c #E9B98C",
"= c #FACBA6",
"- c None",
/* pixels */
"----------------------------------------------------------------",
"----------------------------------------------------------------",
"----------------------------------------------------------------",
"----------------------------------------------------------------",
"----------------------------------------------------------------",
"----------------------------------------------------------------",
"----------------------------------------------------------------",
"----------------------------------------------------------------",
"----------------------------------------------------------------",
"----------------------------------------------------------------",
"----------------------------------------------------------------",
"----------------------------------------------------------------",
"----------------------------------------------------------------",
"----------------------------------------------------------------",
"----------------------------------------------------------------",
"----------------------------------------------------------------",
"----------------------------------------------------------------",
"----------------------------------------------------------------",
"----------------------------------------------------------------",
"----------------------------------------------------------------",
"----------------------------------------------------------------",
"----------------------------------------------------------------",
"----------------------------------------------------------------",
"----------------------------------------------------------------",
"------------        ----                        ----------------",
"------------        ----                        ----------------",
"------------        ----                        ----------------",
"------------        ----                        ----------------",
"--------    @@@@oooo    %%%%********====    @@@@    ------------",
"--------    @@@@oooo    %%%%********====    @@@@    ------------",
"--------    @@@@oooo    %%%%********====    @@@@    ------------",
"--------    @@@@oooo    %%%%********====    @@@@    ------------",
"----    @@@@XXXXoooo    $$$$    ****OOOO    OOOO####    --------",
"----    @@@@XXXXoooo    $$$$    ****OOOO    OOOO####    --------",
"----    @@@@XXXXoooo    $$$$    ****OOOO    OOOO####    --------",
"----    @@@@XXXXoooo    $$$$    ****OOOO    OOOO####    --------",
"----    XXXXooooOOOO    OOOO********====    ooooOOOO    --------",
"----    XXXXooooOOOO    OOOO********====    ooooOOOO    --------",
"----    XXXXooooOOOO    OOOO********====    ooooOOOO    --------",
"----    XXXXooooOOOO    OOOO********====    ooooOOOO    --------",
"----    XXXXooooOOOO....XXXX........XXXX....ooooOOOO    --------",
"----    XXXXooooOOOO....XXXX........XXXX....ooooOOOO    --------",
"----    XXXXooooOOOO....XXXX........XXXX....ooooOOOO    --------",
"----    XXXXooooOOOO....XXXX........XXXX....ooooOOOO    --------",
"--------    ....    XXXX++++@@@@@@@@####    XXXX    ------------",
"--------    ....    XXXX++++@@@@@@@@####    XXXX    ------------",
"--------    ....    XXXX++++@@@@@@@@####    XXXX    ------------",
"--------    ....    XXXX++++@@@@@@@@####    XXXX    ------------",
"--------    oooo    ....XXXX++++####OOOO    %%%%    ------------",
"--------    oooo    ....XXXX++++####OOOO    %%%%    ------------",
"--------    oooo    ....XXXX++++####OOOO    %%%%    ------------",
"--------    oooo    ....XXXX++++####OOOO    %%%%    ------------",
"------------            XXXXooooOOOOXXXX    &&&&    ------------",
"------------            XXXXooooOOOOXXXX    &&&&    ------------",
"------------            XXXXooooOOOOXXXX    &&&&    ------------",
"------------            XXXXooooOOOOXXXX    &&&&    ------------",
"----------------    XXXX....    XXXXOOOO        ----------------",
"----------------    XXXX....    XXXXOOOO        ----------------",
"----------------    XXXX....    XXXXOOOO        ----------------",
"----------------    XXXX....    XXXXOOOO        ----------------",
"----------------    XXXXoooo    ooooOOOO    --------------------",
"----------------    XXXXoooo    ooooOOOO    --------------------",
"----------------    XXXXoooo    ooooOOOO    --------------------",
"----------------    XXXXoooo    ooooOOOO    --------------------"
};
