/* XPM */
static char *result[] = {
/* columns rows colors chars-per-pixel */
"64 64 12 1 ",
"  c black",
". c #2D032F",
"X c #5C073C",
"o c #81071A",
"O c #BF1F1F",
"+ c #E2581A",
"@ c #E2771A",
"# c #E29D1A",
"$ c #CDA274",
"% c #E9B98C",
"& c #FACBA6",
"* c None",
/* pixels */
"****************************************************************",
"****************************************************************",
"****************************************************************",
"****************************************************************",
"****************************************************************",
"****************************************************************",
"****************************************************************",
"****************************************************************",
"****************************************************************",
"****************************************************************",
"****************************************************************",
"****************************************************************",
"****************************************************************",
"****************************************************************",
"****************************************************************",
"****************************************************************",
"****************************************************************",
"****************************************************************",
"****************************************************************",
"****************************************************************",
"****************                            ********************",
"****************                            ********************",
"****************                            ********************",
"****************                            ********************",
"************    ####oooo    $$$$%%%%&&&&        ****************",
"************    ####oooo    $$$$%%%%&&&&        ****************",
"************    ####oooo    $$$$%%%%&&&&        ****************",
"************    ####oooo    $$$$%%%%&&&&        ****************",
"********    @@@@ooooOOOO        %%%%OOOO    @@@@    ************",
"********    @@@@ooooOOOO        %%%%OOOO    @@@@    ************",
"********    @@@@ooooOOOO        %%%%OOOO    @@@@    ************",
"********    @@@@ooooOOOO        %%%%OOOO    @@@@    ************",
"********    XXXXooooOOOO    $$$$%%%%&&&&....oooo    ************",
"********    XXXXooooOOOO    $$$$%%%%&&&&....oooo    ************",
"********    XXXXooooOOOO    $$$$%%%%&&&&....oooo    ************",
"********    XXXXooooOOOO    $$$$%%%%&&&&....oooo    ************",
"********    XXXXooooOOOO    ........XXXX....oooo    ************",
"********    XXXXooooOOOO    ........XXXX....oooo    ************",
"********    XXXXooooOOOO    ........XXXX....oooo    ************",
"********    XXXXooooOOOO    ........XXXX....oooo    ************",
"************        XXXXoooo    @@@@####        ****************",
"************        XXXXoooo    @@@@####        ****************",
"************        XXXXoooo    @@@@####        ****************",
"************        XXXXoooo    @@@@####        ****************",
"********************        ++++####OOOO    ********************",
"********************        ++++####OOOO    ********************",
"********************        ++++####OOOO    ********************",
"********************        ++++####OOOO    ********************",
"****************        XXXXooooOOOOXXXXOOOO    ****************",
"****************        XXXXooooOOOOXXXXOOOO    ****************",
"****************        XXXXooooOOOOXXXXOOOO    ****************",
"****************        XXXXooooOOOOXXXXOOOO    ****************",
"************    XXXX....            ooooOOOO    ****************",
"************    XXXX....            ooooOOOO    ****************",
"************    XXXX....            ooooOOOO    ****************",
"************    XXXX....            ooooOOOO    ****************",
"************    XXXXoooo    ********        ********************",
"************    XXXXoooo    ********        ********************",
"************    XXXXoooo    ********        ********************",
"************    XXXXoooo    ********        ********************",
"************    XXXX    ****************************************",
"************    XXXX    ****************************************",
"************    XXXX    ****************************************",
"************    XXXX    ****************************************"
};
