/* XPM */
static char *_61e92e3dc2b4bdaef50fb2757a67536c6Li91aw4QG0hBG4[] = {
/* columns rows colors chars-per-pixel */
"80 30 51 1 ",
"  c black",
". c gray69",
"X c #F1F1F1",
"o c #D8D8D8",
"O c gray29",
"+ c DimGray",
"@ c gray74",
"# c #929292",
"$ c gray73",
"% c white",
"& c #E4E4E4",
"* c gray31",
"= c #6F6F6F",
"- c #C8C8C8",
"; c gray60",
": c gray96",
"> c gray67",
", c #434343",
"< c #373737",
"1 c #A4A4A4",
"2 c gray50",
"3 c gray36",
"4 c #868686",
"5 c #9D9D9D",
"6 c #282828",
"7 c gray17",
"8 c #D2D2D2",
"9 c #5B5B5B",
"0 c gray22",
"q c #727272",
"w c gray7",
"e c gray24",
"r c #161616",
"t c #F8F8F8",
"y c #2F2F2F",
"u c gray81",
"i c gray98",
"p c gray84",
"a c #252525",
"s c gray86",
"d c #848484",
"f c #0C0C0C",
"g c gray6",
"h c #444444",
"j c #676767",
"k c #F3F3F3",
"l c #4C4C4C",
"z c gray47",
"x c gray54",
"c c #959595",
"v c gray18",
/* pixels */
"                                                                                ",
"                                                                                ",
"                                                                                ",
"                                                                                ",
"                                                                                ",
"                                                                                ",
"                                                                                ",
"                .XXXXXXX       oXXXXO      +XXXX@    .Xo     XX#                ",
"                $%%%%%%%       &%%%%*      =%%%%-    $%&     %%;                ",
"                $%:>>>>>==, <==1>>>>2=3  +=4>>>>5==6 $%&     %%;                ",
"                $%&     %%; 2%%7    -%8  X%>    *%%9 $%&  099@@q                ",
"                $%&     %%; 2%%7    -%8  X%>    *%%9 $%&  5%%                   ",
"                $%&     %%; 2%%7    -%8  X%>    weer $%&  5%%                   ",
"                $%t-----**y 2%%u----X%8  X%>         $%t--4**                   ",
"                $%%%%%%%    2%%%%%%%%%8  X%>         $%%%%2                     ",
"                $%ipppppeea 2%%spppp:%8  X%>         $%ippdee                   ",
"                $%&     %%; 2%%7    -%8  X%>    f77g $%&  5%%                   ",
"                $%&     %%; 2%%7    -%8  X%>    *%%9 $%&  5%%                   ",
"                $%&     %%; 2%%7    -%8  X%>    *%%9 $%&  h==>>j                ",
"                $%k5555522l 2%%7    -%8  z2x5555c22v $%&     %%;                ",
"                $%%%%%%%    2%%7    -%8    =%%%%-    $%&     %%;                ",
"                $%%%%%%%    2%%7    -%8    =%%%%-    $%&     %%;                ",
"                                                                                ",
"                                                                                ",
"                                                                                ",
"                                                                                ",
"                                                                                ",
"                                                                                ",
"                                                                                ",
"                                                                                "
};
