/* XPM */
static char *_f8cb1aee89e46cfccf698c922db585fuNtBSxv3j2IJw10V[] = {
/* columns rows colors chars-per-pixel */
"16 16 14 1 ",
"  c None",
". c black",
"X c #D27C35",
"o c #75181E",
"O c #64A0B2",
"+ c #E1BB92",
"@ c #F2CCAB",
"# c #53123B",
"$ c #C5A37A",
"% c #AE3129",
"& c #D79F3D",
"* c #28062D",
"= c #D06130",
"- c #89CBD1",
/* pixels */
"                ",
"                ",
"                ",
"   .. ......    ",
"  .Xo.O++@.X.   ",
" .X#o.$.+%.%&.  ",
" .#o%.%++@.o%.  ",
" .#o%*#**#*o%.  ",
"  .*.#=XX&.*#.  ",
"  .o.*#=&%.%O.  ",
"   ...#o%#.O-.  ",
"    .#*.#%...   ",
"    .#o.o%.     ",
"                ",
"                ",
"                "
};
