/* XPM */
static char *_9a5893ce730476aa140a6c2ec74b286RBhb6odQRow0cdRq[] = {
/* columns rows colors chars-per-pixel */
"16 16 7 1 ",
"  c black",
". c None",
"X c #775038",
"o c #8F6249",
"O c #976F44",
"+ c #B48256",
"@ c #4B3428",
/* pixels */
"  ......  ..  . ",
"Xo    . O+  O+ O",
"  XXXo @  X@  @ ",
"      @         ",
"                ",
"                ",
"                ",
"                ",
"                ",
"                ",
"                ",
"                ",
"                ",
"                ",
"                ",
"                "
};
