/* XPM */
static char *result[] = {
/* columns rows colors chars-per-pixel */
"16 16 26 1 ",
"  c black",
". c #010000",
"X c #010101",
"o c #020101",
"O c #020201",
"+ c #030302",
"@ c #040302",
"# c #050302",
"$ c #050402",
"% c #060503",
"& c #070503",
"* c #422E23",
"= c #483226",
"- c #493327",
"; c #734D36",
": c #754F37",
"> c #764F37",
", c #775038",
"< c #8D6048",
"1 c #8E6249",
"2 c #906A41",
"3 c #916B41",
"4 c #936C42",
"5 c #AD7D53",
"6 c #AF7F54",
"7 c None",
/* pixels */
"              , ",
"              1.",
"             :X7",
"             >X7",
"             >X7",
"             <o7",
"            *O77",
"            .-o7",
"              4+",
"              6#",
"             ;@7",
"             -O7",
"              3$",
"              5&",
"             =@7",
"              2%"
};
