/* XPM */
static char *result[] = {
/* columns rows colors chars-per-pixel */
"64 64 7 1 ",
"  c black",
". c #4B3428",
"X c #775038",
"o c #8F6249",
"O c #976F44",
"+ c #B48256",
"@ c None",
/* pixels */
"        @@@@@@@@@@@@@@@@@@@@@@@@        @@@@@@@@        @@@@    ",
"        @@@@@@@@@@@@@@@@@@@@@@@@        @@@@@@@@        @@@@    ",
"        @@@@@@@@@@@@@@@@@@@@@@@@        @@@@@@@@        @@@@    ",
"        @@@@@@@@@@@@@@@@@@@@@@@@        @@@@@@@@        @@@@    ",
"XXXXoooo                @@@@    OOOO++++        OOOO++++    OOOO",
"XXXXoooo                @@@@    OOOO++++        OOOO++++    OOOO",
"XXXXoooo                @@@@    OOOO++++        OOOO++++    OOOO",
"XXXXoooo                @@@@    OOOO++++        OOOO++++    OOOO",
"        XXXXXXXXXXXXoooo    ....        XXXX....        ....    ",
"        XXXXXXXXXXXXoooo    ....        XXXX....        ....    ",
"        XXXXXXXXXXXXoooo    ....        XXXX....        ....    ",
"        XXXXXXXXXXXXoooo    ....        XXXX....        ....    ",
"                        ....                                    ",
"                        ....                                    ",
"                        ....                                    ",
"                        ....                                    ",
"                                                                ",
"                                                                ",
"                                                                ",
"                                                                ",
"                                                                ",
"                                                                ",
"                                                                ",
"                                                                ",
"                                                                ",
"                                                                ",
"                                                                ",
"                                                                ",
"                                                                ",
"                                                                ",
"                                                                ",
"                                                                ",
"                                                                ",
"                                                                ",
"                                                                ",
"                                                                ",
"                                                                ",
"                                                                ",
"                                                                ",
"                                                                ",
"                                                                ",
"                                                                ",
"                                                                ",
"                                                                ",
"                                                                ",
"                                                                ",
"                                                                ",
"                                                                ",
"                                                                ",
"                                                                ",
"                                                                ",
"                                                                ",
"                                                                ",
"                                                                ",
"                                                                ",
"                                                                ",
"                                                                ",
"                                                                ",
"                                                                ",
"                                                                ",
"                                                                ",
"                                                                ",
"                                                                ",
"                                                                "
};
