/* XPM */
static char *result[] = {
/* columns rows colors chars-per-pixel */
"64 64 26 1 ",
"  c black",
". c #010000",
"X c #010101",
"o c #020101",
"O c #020201",
"+ c #030302",
"@ c #040302",
"# c #050302",
"$ c #050402",
"% c #060503",
"& c #070503",
"* c #422E23",
"= c #483226",
"- c #493327",
"; c #734D36",
": c #754F37",
"> c #764F37",
", c #775038",
"< c #8D6048",
"1 c #8E6249",
"2 c #906A41",
"3 c #916B41",
"4 c #936C42",
"5 c #AD7D53",
"6 c #AF7F54",
"7 c None",
/* pixels */
"                                                        ,,,,    ",
"                                                        ,,,,    ",
"                                                        ,,,,    ",
"                                                        ,,,,    ",
"                                                        1111....",
"                                                        1111....",
"                                                        1111....",
"                                                        1111....",
"                                                    ::::XXXX7777",
"                                                    ::::XXXX7777",
"                                                    ::::XXXX7777",
"                                                    ::::XXXX7777",
"                                                    >>>>XXXX7777",
"                                                    >>>>XXXX7777",
"                                                    >>>>XXXX7777",
"                                                    >>>>XXXX7777",
"                                                    >>>>XXXX7777",
"                                                    >>>>XXXX7777",
"                                                    >>>>XXXX7777",
"                                                    >>>>XXXX7777",
"                                                    <<<<oooo7777",
"                                                    <<<<oooo7777",
"                                                    <<<<oooo7777",
"                                                    <<<<oooo7777",
"                                                ****OOOO77777777",
"                                                ****OOOO77777777",
"                                                ****OOOO77777777",
"                                                ****OOOO77777777",
"                                                ....----oooo7777",
"                                                ....----oooo7777",
"                                                ....----oooo7777",
"                                                ....----oooo7777",
"                                                        4444++++",
"                                                        4444++++",
"                                                        4444++++",
"                                                        4444++++",
"                                                        6666####",
"                                                        6666####",
"                                                        6666####",
"                                                        6666####",
"                                                    ;;;;@@@@7777",
"                                                    ;;;;@@@@7777",
"                                                    ;;;;@@@@7777",
"                                                    ;;;;@@@@7777",
"                                                    ----OOOO7777",
"                                                    ----OOOO7777",
"                                                    ----OOOO7777",
"                                                    ----OOOO7777",
"                                                        3333$$$$",
"                                                        3333$$$$",
"                                                        3333$$$$",
"                                                        3333$$$$",
"                                                        5555&&&&",
"                                                        5555&&&&",
"                                                        5555&&&&",
"                                                        5555&&&&",
"                                                    ====@@@@7777",
"                                                    ====@@@@7777",
"                                                    ====@@@@7777",
"                                                    ====@@@@7777",
"                                                        2222%%%%",
"                                                        2222%%%%",
"                                                        2222%%%%",
"                                                        2222%%%%"
};
